<svg xmlns="http://www.w3.org/2000/svg" viewBox="0 0 411.79 102.46"><defs><style>.cls-1{font-size:38px;fill:#9d9d9c;font-family:MaassslicerItalic, Maassslicer;}.cls-2{font-size:17px;fill:#b2b2b2;font-family:Arial-ItalicMT, Arial;font-style:italic;}.cls-3{letter-spacing:-0.04em;}.cls-4{letter-spacing:0em;}.cls-5{fill:#e30613;}.cls-6{fill:#706f6f;}</style></defs><g id="Capa_2" data-name="Capa 2"><g id="Capa_1-2" data-name="Capa 1"><text/><text class="cls-1" transform="translate(130.16 74.02) scale(1.38 1)">GANATRANS</text><text class="cls-2" transform="translate(198 96.94)">SISTEM<tspan class="cls-3" x="63.28" y="0">A</tspan><tspan class="cls-4" x="73.99" y="0" xml:space="preserve"> DE GANANCIAS</tspan></text><path class="cls-5" d="M90.24,3.87c.54-2-.48-3.55-2.26-3.55L24.76.27a4.76,4.76,0,0,0-4.19,3.55L.14,79.41C-.39,81.38.62,83,2.4,83h9.68c2-6.75,8.44-12.19,14.59-12.18s9.7,5.45,8,12.2l34.16,0a2.1,2.1,0,0,1,.06-.24ZM27.76,25.59c-6.07,0-2.76-12.25,3.31-12.25S33.84,25.6,27.76,25.59ZM54,49.47a16.07,16.07,0,0,1-9.09,8.73l-.28,1a4.78,4.78,0,0,1-4.18,3.55c-1.78,0-2.79-1.59-2.26-3.56l.17-.63a8.49,8.49,0,0,1-4.46-2.33c-1.2-1.08-1-3.28.39-4.92s3.54-2.1,4.74-1c1.43,1.28,2,1.38,4.4,1.37a5.33,5.33,0,0,0,4.53-3.39c.49-1.15.71-2.69-1-3.44-2.58-1.13-5.2-2.42-6.79-4.23s-1.79-5.1-.33-8.41a13.53,13.53,0,0,1,7.65-7.34l.22-.79a4.78,4.78,0,0,1,4.18-3.55c1.78,0,2.79,1.59,2.26,3.56l-.15.57a7.43,7.43,0,0,1,3,1.87c1.11,1.17.8,3.4-.69,5s-3.6,1.89-4.71.72c-.4-.43-1.57-1.33-3.84-.64a3.54,3.54,0,0,0-2,2c-.32.73-.33,1.32-.17,1.5,1,1.18,3.25,2.24,5.27,3.12C54.83,39.88,56.08,44.43,54,49.47Zm5.2,22.71c-6.07,0-2.76-12.26,3.31-12.25S65.23,72.18,59.15,72.18Z"/><path class="cls-6" d="M92.51,55.06c-1.78,0-2.79-1.59-2.26-3.56l7.83-29H91.65l-13.24,49a12.28,12.28,0,0,1,5.17-1.2c6.23,0,9.79,5.6,7.94,12.48,0,.08,0,.16-.07.23l14.51,0a4.78,4.78,0,0,0,4.18-3.56l2.76-10.2h-9.84c-1.78,0-2.79-1.59-2.26-3.56A4.78,4.78,0,0,1,105,62.18h9.84l1.93-7.11-24.24,0Z"/><path class="cls-6" d="M97.65,48h20.13l-.57-23a2.35,2.35,0,0,0-2.41-2.45H104.52Z"/><path class="cls-6" d="M18.44,83.27c-.8,3,.73,5.36,3.41,5.36s5.52-2.4,6.31-5.36-.73-5.36-3.41-5.36S19.24,80.31,18.44,83.27Z"/><path class="cls-6" d="M85.07,82.8c.8-3-.73-5.36-3.41-5.37s-5.52,2.41-6.32,5.37.73,5.36,3.42,5.36S84.27,85.76,85.07,82.8Z"/></g></g></svg>