<svg xmlns="http://www.w3.org/2000/svg" viewBox="0 0 494.9 155.01"><defs><style>.cls-1{font-size:47.95px;fill:#9d9d9c;font-family:MaassslicerItalic, Maassslicer;}.cls-2{font-size:22px;fill:#b2b2b2;font-family:Arial-ItalicMT, Arial;font-style:italic;}.cls-3{letter-spacing:-0.04em;}.cls-4{letter-spacing:0em;}.cls-5{fill:#e30613;}.cls-6{fill:#706f6f;}.cls-7{fill:#1d1d1b;}</style></defs><g id="Capa_2" data-name="Capa 2"><g id="Capa_1-2" data-name="Capa 1"><text/><text class="cls-1" transform="translate(139.55 121.54) scale(1.38 1)">GANATRANS</text><text class="cls-2" transform="translate(199.06 147.87)">SISTEM<tspan class="cls-3" x="81.9" y="0">A</tspan><tspan class="cls-4" x="95.76" y="0" xml:space="preserve"> DE GANANCIAS</tspan></text><path class="cls-5" d="M90.24,42.64c.54-2-.48-3.56-2.26-3.56L24.76,39a4.79,4.79,0,0,0-4.19,3.55L.14,118.18c-.53,2,.48,3.55,2.26,3.55h9.68c2-6.75,8.44-12.19,14.59-12.18s9.7,5.45,8,12.2l34.16,0a2.1,2.1,0,0,1,.06-.24ZM27.76,64.35c-6.07,0-2.76-12.25,3.31-12.25S33.84,64.36,27.76,64.35ZM54,88.23A16,16,0,0,1,44.86,97l-.28,1a4.78,4.78,0,0,1-4.18,3.56c-1.78,0-2.79-1.6-2.26-3.56l.17-.64A8.49,8.49,0,0,1,33.85,95c-1.2-1.08-1-3.28.39-4.92s3.54-2.1,4.74-1c1.43,1.28,2,1.39,4.4,1.37a5.32,5.32,0,0,0,4.53-3.38c.49-1.16.71-2.69-1-3.45-2.58-1.13-5.2-2.42-6.79-4.23s-1.79-5.1-.33-8.41a13.53,13.53,0,0,1,7.65-7.34l.22-.79a4.78,4.78,0,0,1,4.18-3.55c1.78,0,2.79,1.6,2.26,3.56l-.15.57a7.43,7.43,0,0,1,3,1.87c1.11,1.18.8,3.41-.69,5s-3.6,1.88-4.71.71c-.4-.42-1.57-1.33-3.84-.63a3.53,3.53,0,0,0-2,1.94c-.32.73-.33,1.32-.17,1.5,1,1.18,3.25,2.24,5.27,3.12C54.83,78.64,56.08,83.19,54,88.23Zm5.2,22.71c-6.07,0-2.76-12.25,3.31-12.25S65.23,111,59.15,110.94Z"/><path class="cls-6" d="M92.51,93.82c-1.78,0-2.79-1.59-2.26-3.55l7.83-29H91.65l-13.24,49a12.44,12.44,0,0,1,5.17-1.2c6.23,0,9.79,5.6,7.94,12.48a2.17,2.17,0,0,0-.07.24H106a4.78,4.78,0,0,0,4.18-3.55l2.76-10.21h-9.84c-1.78,0-2.79-1.59-2.26-3.55A4.75,4.75,0,0,1,105,101h9.84l1.93-7.12-24.24,0Z"/><path class="cls-6" d="M97.65,86.72h20.13l-.57-23a2.35,2.35,0,0,0-2.41-2.46H104.52Z"/><path class="cls-7" d="M18.44,122c-.8,3,.73,5.36,3.41,5.37S27.37,125,28.16,122s-.73-5.37-3.41-5.37S19.24,119.07,18.44,122Z"/><path class="cls-7" d="M85.07,121.56c.8-3-.73-5.36-3.41-5.36s-5.52,2.4-6.32,5.36.73,5.36,3.42,5.37S84.27,124.52,85.07,121.56Z"/></g></g></svg>