<svg id="Capa_1" data-name="Capa 1" xmlns="http://www.w3.org/2000/svg" viewBox="0 0 918.58 432.05">
    <defs>
        <style>.cls-1{fill:#3f3d56;}.cls-2{fill:#ccc;}.cls-3{fill:#fff;}.cls-4{fill:#e41d13;}.cls-5{fill:#e6e6e6;}.cls-6{fill:#ffb8b8;}.cls-7{fill:#2f2e41;}.cls-8{fill:#1d1d1b;}.cls-9{opacity:0.1;isolation:isolate;}.cls-10{fill:#e52d12;}.cls-11{fill:#e62c27;}</style>
    </defs>
    <title>logo-Funcionalidades</title>
    <path class="cls-1" d="M184.39,306.4a10.23,10.23,0,0,0-10.21,10.21V340.5a10.23,10.23,0,0,0,10.21,10.21h13a10.23,10.23,0,0,0,10.21-10.21V316.61a10.22,10.22,0,0,0-10.21-10.21Z" transform="translate(0 0)"/>
    <path class="cls-1" d="M423.77,351.5H410.82a11,11,0,0,1-11-11V316.61a11,11,0,0,1,11-11h12.95a11,11,0,0,1,11,11V340.5A11,11,0,0,1,423.77,351.5Z" transform="translate(0 0)"/>
    <path class="cls-2" d="M415.18,332.38h-223c-10.15,0-18.41-6-18.41-13.34V276.16l11.07-11.66H424.67l8.91,11.68V319C433.58,326.39,425.33,332.38,415.18,332.38Z" transform="translate(0 0)"/>
    <path class="cls-2" d="M423.63,286H186.12l-2.41-37,1.54-3.79,8.92-22H414L426,248.14Z" transform="translate(0 0)"/>
    <polygon class="cls-3" points="425.64 248.22 423.87 276.02 371.61 276.02 371.61 255.37 424.15 245.15 425.64 248.22"/>
    <polygon class="cls-3" points="237.34 255.37 237.34 276.02 185.88 276.02 184.11 249.01 185.61 245.31 237.34 255.37"/>
    <path class="cls-2" d="M412.65,229.54H195.5l23.16-77.2a15.49,15.49,0,0,1,14.76-11.09l143.81-1.37a15.56,15.56,0,0,1,15.22,11.66Z" transform="translate(0 0)"/>
    <path class="cls-3" d="M395.93,222.24l-183.75-2.17a1.49,1.49,0,0,1-1.47-1.51,1.61,1.61,0,0,1,.07-.43l17.62-55a1.47,1.47,0,0,1,1.41-1h147.8a1.48,1.48,0,0,1,1.41,1l18.34,57.14a1.48,1.48,0,0,1-1,1.86A1.25,1.25,0,0,1,395.93,222.24Z" transform="translate(0 0)"/>
    <path class="cls-4" d="M328.84,149.3H279.31c-.42,0-.8-.39-1-1a3,3,0,0,1,.08-1.95l4.08-9.78c.21-.5.55-.8.91-.8h41.36c.36,0,.7.3.91.8l4.08,9.78a2.9,2.9,0,0,1,.08,1.95C329.63,148.91,329.25,149.3,328.84,149.3Z" transform="translate(0 0)"/>
    <path class="cls-2" d="M195.63,228H163.06V220.8a8.73,8.73,0,0,1,8.73-8.73h23.84Z" transform="translate(0 0)"/>
    <path class="cls-2" d="M445.11,228H412.53V212.07h23.84a8.75,8.75,0,0,1,8.74,8.73Z" transform="translate(0 0)"/>
    <rect class="cls-1" x="-4.64" y="368.11" width="169.21" height="2" transform="translate(-120.08 48.77) rotate(-19.76)"/>
    <rect class="cls-1" x="526.2" y="284.5" width="2" height="169.21" transform="translate(1.62 740.52) rotate(-70.25)"/>
    <path class="cls-5" d="M312.93,381.05H303.4V368.74h9.53Zm0-24.62H303.4V344.11h9.53Z" transform="translate(0 0)"/>
    <path class="cls-5" d="M312.93,432.05H303.4V419.74h9.53Zm0-24.62H303.4V395.11h9.53Z" transform="translate(0 0)"/>
    <polygon class="cls-6" points="731.76 389.52 721.26 389.52 716.26 349.03 731.76 349.03 731.76 389.52"/>
    <path class="cls-7" d="M734.44,399.7H700.59v-.43a13.19,13.19,0,0,1,13.17-13.18h20.68Z" transform="translate(0 0)"/>
    <polygon class="cls-6" points="867.14 369.63 858.14 375.04 833 342.9 846.28 334.92 867.14 369.63"/>
    <path class="cls-7" d="M845.66,394.41l-.22-.37A13.18,13.18,0,0,1,850,376l17.72-10.65,7,11.66Z" transform="translate(0 0)"/>
    <path class="cls-8" d="M734.49,381.16h-.18a139.52,139.52,0,0,1-15.29-.88c-1.93-.19-4-.39-6.56-.6l-.09,0c-1.72-.51-1.77-16.69-1-72.06.38-28.37.8-60.51.3-81v-.2l.15-.13c18.73-16.29,42.78-22.39,67.72-17.19l.19,0,.09.16c10.32,17.46,25.9,42.6,41,66.92,34.58,55.83,44.47,72.25,43.39,73.49l-.13.1c-2.36,1.18-4.14,2.09-5.65,2.86-5,2.59-7.13,3.66-18.36,8.28l-.28.12-.2-.22c-35.09-38.46-64.29-81.41-82.35-121.12-2.11,13.56-4.68,31.26-7.38,50-7.79,53.78-13,89.2-15.17,91.36Z" transform="translate(0 0)"/>
    <path class="cls-7" d="M789,54.9c3.53-14.59,6.53-31-.14-44.49C784.23,1.09,767.12-2,757.32,1.31s-16.9,12.47-20,22.41-2.76,20.64-1.4,31C753.94,54.35,772,54,789,54.9Z" transform="translate(0 0)"/>
    <circle class="cls-6" cx="758.55" cy="33.87" r="21.03"/>
    <path class="cls-7" d="M784.27,29.53a26.42,26.42,0,0,0-52.83-1c0,.56,0,1.13,0,1.69C749.47,30.27,767.47,30.31,784.27,29.53Z" transform="translate(0 0)"/>
    <path class="cls-1" d="M743.94,230.75A184,184,0,0,1,805.41,241c.68-33.15-10.73-66.37-31.37-91.21l-.15-.19.08-.23c5.51-15.92,11.21-32.39,16.3-48.77l-.08-.27c-3.57-12.7-11.23-25.52-23.43-39.22a7.5,7.5,0,0,0-10.24-.52c-21.68,19.87-33.47,49.65-30.76,77.7v.08l0,.08c-9.55,32.36-13,49-16.07,63.63-2.23,10.7-4.16,20-8,33.19A199.34,199.34,0,0,1,743.94,230.75Z" transform="translate(0 0)"/>
    <polygon class="cls-9" points="774.75 128.49 743.68 196.12 725.94 178.15 774.75 128.49"/>
    <path class="cls-1" d="M705,166.05l2.17,4.21a.16.16,0,0,1-.07.22l-.11.05,11.29,21.93a2.57,2.57,0,0,1-1.11,3.46L703.49,203a2.58,2.58,0,0,1-3.47-1.11h0l-10.88-21.15-.08,0a.13.13,0,0,1-.16-.05l-1.23-2.4a.12.12,0,0,1,.05-.16h0l.08,0-.47-.91-.07,0a.13.13,0,0,1-.17-.05l-1.21-2.36a.13.13,0,0,1,0-.17l.08,0-.64-1.23-.08,0a.1.1,0,0,1-.14,0h0l-.67-1.29a.12.12,0,0,1,0-.15l.08,0-1.34-2.61a2.56,2.56,0,0,1,1.11-3.46l13.69-7.05a2.57,2.57,0,0,1,3.47,1.11L704.7,166l.1-.05A.16.16,0,0,1,705,166.05Z" transform="translate(0 0)"/>
    <path class="cls-10" d="M700.68,160.91l16.62,32.3a1.64,1.64,0,0,1-.71,2.2l-13.11,6.75a1.62,1.62,0,0,1-2.19-.7h0l-16.62-32.3a1.62,1.62,0,0,1,.7-2.19h0l2-1,.13.25a1.34,1.34,0,0,0,1.81.58h0l6.67-3.43a1.35,1.35,0,0,0,.58-1.81l-.13-.26,2.09-1.07a1.62,1.62,0,0,1,2.19.7Z" transform="translate(0 0)"/>
    <path class="cls-6" d="M705.49,200.37a8.61,8.61,0,0,0,8-9.19,9.75,9.75,0,0,0-.24-1.5l25.59-16.77-14.59-6.3L702.18,183.5a8.66,8.66,0,0,0,3.31,16.87Z" transform="translate(0 0)"/>
    <path class="cls-1" d="M730.12,188.29l-.32-.23c-6.09-4.48-12.86-9.12-19.4-13.6l-.39-.27.31-.36c14-16.34,27.93-33.39,41.45-49.9l0-.06.13-.06.06-.07,0,0,.08,0-.37,0L747.5,91.08C743.74,86,743,75.76,748,68.64c5.11-7.37,15.91-9.83,23.13-5.28a15.18,15.18,0,0,1,6.66,11.34,13.67,13.67,0,0,1-3.63,11.2c1.77,17.29,1.84,32.75,1.91,47.7v.15l-.1.12c-14.4,18.3-30.23,36.51-45.54,54.12Z" transform="translate(0 0)"/>
    <circle class="cls-11" cx="303.79" cy="51.81" r="47.29"/>
    <polygon class="cls-3" points="299.29 71.77 285.13 53.57 293.36 47.17 300.07 55.79 322.71 31.89 330.28 39.06 299.29 71.77"/>
    <path class="cls-1" d="M917.58,401h-239a1,1,0,1,1,0-2h239a1,1,0,0,1,0,2Z" transform="translate(0 0)"/>
</svg>