<svg xmlns="http://www.w3.org/2000/svg" viewBox="0 0 117.78 88.37">
    <defs>
        <style>.cls-1{fill:#e30613;}.cls-2{fill:#706f6f;}.cls-3{fill:#1d1d1b;}</style>
    </defs>
    <g id="Capa_2" data-name="Capa 2">
        <g id="Capa_1-2" data-name="Capa 1">
            <path class="cls-1" d="M90.24,3.61c.54-2-.48-3.56-2.26-3.56L24.76,0a4.79,4.79,0,0,0-4.19,3.55L.14,79.15c-.53,2,.48,3.56,2.26,3.56h9.68C14,76,20.52,70.53,26.67,70.53s9.7,5.45,8,12.2l34.16,0a2.1,2.1,0,0,1,.06-.24ZM27.76,25.33c-6.07,0-2.76-12.26,3.31-12.25S33.84,25.33,27.76,25.33ZM54,49.2a16.09,16.09,0,0,1-9.09,8.74l-.28,1a4.78,4.78,0,0,1-4.18,3.56c-1.78,0-2.79-1.6-2.26-3.56l.17-.64A8.49,8.49,0,0,1,33.85,56c-1.2-1.08-1-3.28.39-4.92S37.78,49,39,50c1.43,1.27,2,1.38,4.4,1.36A5.32,5.32,0,0,0,47.91,48c.49-1.16.71-2.69-1-3.44-2.58-1.13-5.2-2.43-6.79-4.23s-1.79-5.11-.33-8.42a13.53,13.53,0,0,1,7.65-7.34l.22-.79a4.78,4.78,0,0,1,4.18-3.55c1.78,0,2.79,1.6,2.26,3.56l-.15.57a7.43,7.43,0,0,1,3,1.87c1.11,1.18.8,3.41-.69,5s-3.6,1.89-4.71.71c-.4-.42-1.57-1.32-3.84-.63a3.53,3.53,0,0,0-2,1.94c-.32.73-.33,1.32-.17,1.5,1,1.18,3.25,2.24,5.27,3.12C54.83,39.61,56.08,44.16,54,49.2Zm5.2,22.71c-6.07,0-2.76-12.25,3.31-12.25S65.23,71.92,59.15,71.91Z"/>
            <path class="cls-2" d="M92.51,54.79c-1.78,0-2.79-1.59-2.26-3.55l7.83-29H91.65l-13.24,49a12.44,12.44,0,0,1,5.17-1.2c6.23,0,9.79,5.61,7.94,12.48a2.17,2.17,0,0,0-.07.24H106a4.78,4.78,0,0,0,4.18-3.55L112.9,69h-9.84c-1.78,0-2.79-1.59-2.26-3.55A4.78,4.78,0,0,1,105,61.92h9.84l1.93-7.11-24.24,0Z"/>
            <path class="cls-2" d="M97.65,47.69l20.13,0-.57-23a2.35,2.35,0,0,0-2.41-2.46H104.52Z"/>
            <path class="cls-3" d="M18.44,83c-.8,3,.73,5.37,3.41,5.37S27.37,86,28.16,83s-.73-5.37-3.41-5.37S19.24,80,18.44,83Z"/>
            <path class="cls-3" d="M85.07,82.54c.8-3-.73-5.37-3.41-5.37s-5.52,2.4-6.32,5.36.73,5.37,3.42,5.37S84.27,85.5,85.07,82.54Z"/>
        </g>
    </g>
</svg>